<?xml version="1.0" encoding="utf-8"?>
<!-- Generator: Adobe Illustrator 24.2.3, SVG Export Plug-In . SVG Version: 6.00 Build 0)  -->
<svg version="1.1" id="Layer_1" xmlns="http://www.w3.org/2000/svg" xmlns:xlink="http://www.w3.org/1999/xlink" x="0px" y="0px"
	 viewBox="0 0 800 800" style="enable-background:new 0 0 800 800;" xml:space="preserve">
<style type="text/css">
	.st0{fill:#1C1E21;}
	.st1{fill:#FFFFFF;}
</style>
<rect class="st0" width="800" height="800"/>
<g>
	<g>
		<path class="st1" d="M176.3,601.6c-15.1,0-29.3-8.9-35.4-23.6c-8.1-19.4,1.3-41.6,20.8-49.6l447.4-183c19.5-8,41.9,1.3,50,20.7
			c8,19.4-1.3,41.6-20.8,49.6l-447.4,183C186.1,600.7,181.2,601.6,176.3,601.6z"/>
	</g>
	<g>
		<path class="st1" d="M176.3,456.6c-15.1,0-29.3-8.9-35.4-23.6c-8.1-19.4,1.3-41.6,20.8-49.6l447.4-183c19.5-8,41.9,1.3,50,20.7
			c8,19.4-1.3,41.6-20.8,49.6l-447.4,183C186.1,455.7,181.2,456.6,176.3,456.6z"/>
	</g>
	<g>
		<path class="st1" d="M176.3,306.9c-15.1,0-29.4-8.9-35.5-23.7c-8-19.5,1.5-41.6,21-49.5l274.5-110.9c19.6-7.9,41.9,1.4,49.9,20.9
			c8,19.4-1.5,41.6-21,49.5L190.7,304.1C186,306,181.1,306.9,176.3,306.9z"/>
	</g>
	<g>
		<path class="st1" d="M348.6,680c-15.1,0-29.4-8.9-35.5-23.7c-8-19.4,1.5-41.6,21-49.5L608.6,496c19.6-7.9,41.9,1.4,49.9,20.9
			c8,19.4-1.5,41.6-21,49.5L363,677.2C358.3,679.1,353.4,680,348.6,680z"/>
	</g>
</g>
</svg>
